<?xml version="1.0" encoding="UTF-8" standalone="no"?>
<!-- Created with Inkscape (http://www.inkscape.org/) -->

<svg
   width="512"
   height="512"
   viewBox="0 0 512 512"
   version="1.1"
   id="svg1"
   sodipodi:docname="Logair.svg"
   inkscape:version="1.3 (0e150ed6c4, 2023-07-21)"
   inkscape:export-filename="Logair-128.png"
   inkscape:export-xdpi="24"
   inkscape:export-ydpi="24"
   xmlns:inkscape="http://www.inkscape.org/namespaces/inkscape"
   xmlns:sodipodi="http://sodipodi.sourceforge.net/DTD/sodipodi-0.dtd"
   xmlns="http://www.w3.org/2000/svg"
   xmlns:svg="http://www.w3.org/2000/svg">
  <sodipodi:namedview
     id="namedview1"
     pagecolor="#ffffff"
     bordercolor="#666666"
     borderopacity="1.0"
     inkscape:showpageshadow="2"
     inkscape:pageopacity="0.0"
     inkscape:pagecheckerboard="0"
     inkscape:deskcolor="#d1d1d1"
     inkscape:document-units="px"
     inkscape:zoom="1.7763672"
     inkscape:cx="383.92963"
     inkscape:cy="238.40792"
     inkscape:window-width="3840"
     inkscape:window-height="2054"
     inkscape:window-x="-11"
     inkscape:window-y="-11"
     inkscape:window-maximized="1"
     inkscape:current-layer="layer1" />
  <defs
     id="defs1">
    <rect
       x="224.61572"
       y="42.783947"
       width="262.8961"
       height="224.61572"
       id="rect4" />
    <rect
       x="85.004948"
       y="87.819681"
       width="364.78944"
       height="377.73722"
       id="rect2" />
  </defs>
  <g
     inkscape:label="Layer 1"
     inkscape:groupmode="layer"
     id="layer1"
     style="display:inline">
    <rect
       style="fill:#ff6600;stroke:#ff6600;stroke-width:80;stroke-linecap:round;stroke-linejoin:round;stroke-dasharray:none;paint-order:normal"
       id="rect1"
       width="399.42136"
       height="403.90607"
       x="57.420563"
       y="55.168774" />
    <text
       xml:space="preserve"
       style="font-style:normal;font-variant:normal;font-weight:bold;font-stretch:normal;font-size:499.378px;line-height:1.25;font-family:'Segoe UI';-inkscape-font-specification:'Segoe UI Bold';letter-spacing:0px;word-spacing:0px;fill:#ffffff;stroke-width:0.999999"
       x="58.222794"
       y="424.80383"
       id="text3"
       transform="scale(0.97464738,1.0260121)"><tspan
         sodipodi:role="line"
         id="tspan3"
         x="58.222794"
         y="424.80383"
         style="font-style:normal;font-variant:normal;font-weight:bold;font-stretch:normal;font-family:'Segoe UI';-inkscape-font-specification:'Segoe UI Bold';stroke-width:0.999999">L</tspan></text>
    <g
       id="Page-1"
       stroke="none"
       stroke-width="3.08119"
       fill="none"
       fill-rule="evenodd"
       transform="matrix(12.98201,0,0,12.98201,202.47681,123.05599)"
       style="fill:#ffffff">
      <g
         id="Dribbble-Light-Preview"
         transform="translate(-140,-3442)"
         fill="#000000"
         style="fill:#ffffff;stroke-width:3.08119">
        <g
           id="icons"
           transform="translate(56,160)"
           style="fill:#ffffff;stroke-width:3.08119">
          <path
             d="m 98.896833,3293.9707 c -10.434,0 -11.106,0.3061 -12.106,-0.4347 -2.096,-1.5532 0.352,-4.7754 2.448,-3.1135 -2.056,-6.7533 8.325,-9.0344 9.663,-2.4235 3.942997,-0.1406 4.254997,5.9717 -0.005,5.9717 m 1.550997,-7.7393 c 0,0 -0.702997,-1.8105 -2.558997,-3.0497 -4.323,-2.8852 -10.162,-0.1944 -10.822,4.904 -0.005,0.037 -0.059,0.039 -0.029,0.032 -0.952,0.2353 -1.77,0.8085 -2.316,1.5842 -1.115,1.5831 -0.988,3.897 0.73,5.2918 1.592,1.292 2.08,0.971 13.321,0.971 1.317997,0 2.564997,-0.4835 3.509997,-1.294 3,-2.5712 1.878,-7.3147 -1.835,-8.4392"
             id="cloud-[#1076]"
             style="fill:#ffffff;stroke-width:3.08119" />
        </g>
      </g>
    </g>
  </g>
</svg>
